<svg xmlns="http://www.w3.org/2000/svg" width="17" height="16" viewBox="0 0 17 16" fill="none">
  <g clip-path="url(#clip0_102_267)">
    <path d="M7.39003 1.99995C7.24354 1.42693 6.91172 0.919179 6.44682 0.556628C5.98192 0.194077 5.41033 -0.00268555 4.82204 -0.00268555C4.23374 -0.00268555 3.66216 0.194077 3.19725 0.556628C2.73235 0.919179 2.40054 1.42693 2.25404 1.99995H0.181885V3.33328H2.25404C2.40054 3.9063 2.73235 4.41404 3.19725 4.7766C3.66216 5.13915 4.23374 5.33591 4.82204 5.33591C5.41033 5.33591 5.98192 5.13915 6.44682 4.7766C6.91172 4.41404 7.24354 3.9063 7.39003 3.33328H16.091V1.99995H7.39003Z" fill="black"/>
    <path d="M11.4508 5.33325C10.8629 5.3331 10.2916 5.52949 9.8267 5.89153C9.36185 6.25357 9.02982 6.76072 8.88283 7.33325H0.181885V8.66659H8.88283C9.02933 9.2396 9.36114 9.74735 9.82604 10.1099C10.2909 10.4725 10.8625 10.6692 11.4508 10.6692C12.0391 10.6692 12.6107 10.4725 13.0756 10.1099C13.5405 9.74735 13.8723 9.2396 14.0188 8.66659H16.091V7.33325H14.0188C13.8718 6.76072 13.5398 6.25357 13.0749 5.89153C12.6101 5.52949 12.0388 5.3331 11.4508 5.33325Z" fill="black"/>
    <path d="M4.82204 10.6667C4.23409 10.6666 3.66277 10.863 3.19791 11.225C2.73306 11.5871 2.40103 12.0942 2.25404 12.6667H0.181885V14.0001H2.25404C2.40054 14.5731 2.73235 15.0808 3.19725 15.4434C3.66216 15.8059 4.23374 16.0027 4.82204 16.0027C5.41033 16.0027 5.98192 15.8059 6.44682 15.4434C6.91172 15.0808 7.24354 14.5731 7.39003 14.0001H16.091V12.6667H7.39003C7.24304 12.0942 6.91102 11.5871 6.44616 11.225C5.9813 10.863 5.40998 10.6666 4.82204 10.6667Z" fill="black"/>
  </g>
  <defs>
    <clipPath id="clip0_102_267">
      <rect width="15.9091" height="16" fill="white" transform="translate(0.181885)"/>
    </clipPath>
  </defs>
</svg>