<svg xmlns="http://www.w3.org/2000/svg" width="23" height="21" viewBox="0 0 23 21" fill="none">
<path d="M0.041748 11.0209V16.2292C0.041748 16.5055 0.151495 16.7705 0.346845 16.9658C0.542195 17.1612 0.807148 17.2709 1.08341 17.2709H2.12508C2.12508 18.0997 2.45432 18.8946 3.04037 19.4806C3.62642 20.0667 4.42128 20.3959 5.25008 20.3959C6.07888 20.3959 6.87374 20.0667 7.45979 19.4806C8.04584 18.8946 8.37508 18.0997 8.37508 17.2709H14.6251C14.6251 18.0997 14.9543 18.8946 15.5404 19.4806C16.1264 20.0667 16.9213 20.3959 17.7501 20.3959C18.5789 20.3959 19.3737 20.0667 19.9598 19.4806C20.5458 18.8946 20.8751 18.0997 20.8751 17.2709H21.9167C22.193 17.2709 22.458 17.1612 22.6533 16.9658C22.8487 16.7705 22.9584 16.5055 22.9584 16.2292V3.72925C22.9584 2.90045 22.6292 2.10559 22.0431 1.51954C21.4571 0.933488 20.6622 0.604248 19.8334 0.604248H10.4584C9.62961 0.604248 8.83476 0.933488 8.2487 1.51954C7.66265 2.10559 7.33341 2.90045 7.33341 3.72925V5.81258H5.25008C4.76494 5.81258 4.28646 5.92553 3.85254 6.1425C3.41862 6.35946 3.04117 6.67447 2.75008 7.06258L0.250081 10.3959C0.219614 10.4412 0.195107 10.4902 0.177165 10.5417L0.114665 10.6563C0.0686919 10.7725 0.0439929 10.896 0.041748 11.0209ZM16.7084 17.2709C16.7084 17.0649 16.7695 16.8635 16.884 16.6922C16.9984 16.5209 17.1611 16.3874 17.3515 16.3085C17.5418 16.2297 17.7512 16.2091 17.9533 16.2493C18.1554 16.2895 18.341 16.3887 18.4867 16.5343C18.6323 16.68 18.7315 16.8656 18.7717 17.0677C18.8119 17.2698 18.7913 17.4792 18.7125 17.6695C18.6336 17.8599 18.5001 18.0226 18.3288 18.137C18.1575 18.2515 17.9561 18.3126 17.7501 18.3126C17.4738 18.3126 17.2089 18.2028 17.0135 18.0075C16.8182 17.8121 16.7084 17.5472 16.7084 17.2709ZM9.41675 3.72925C9.41675 3.45298 9.52649 3.18803 9.72184 2.99268C9.9172 2.79733 10.1821 2.68758 10.4584 2.68758H19.8334C20.1097 2.68758 20.3746 2.79733 20.57 2.99268C20.7653 3.18803 20.8751 3.45298 20.8751 3.72925V15.1876H20.0626C19.7697 14.8653 19.4127 14.6079 19.0144 14.4317C18.6162 14.2555 18.1855 14.1645 17.7501 14.1645C17.3146 14.1645 16.884 14.2555 16.4857 14.4317C16.0875 14.6079 15.7305 14.8653 15.4376 15.1876H9.41675V3.72925ZM7.33341 9.97925H3.16675L4.41675 8.31258C4.51378 8.18321 4.63959 8.07821 4.78423 8.00589C4.92887 7.93357 5.08837 7.89591 5.25008 7.89591H7.33341V9.97925ZM4.20841 17.2709C4.20841 17.0649 4.26951 16.8635 4.38397 16.6922C4.49843 16.5209 4.66111 16.3874 4.85145 16.3085C5.04179 16.2297 5.25124 16.2091 5.4533 16.2493C5.65536 16.2895 5.84097 16.3887 5.98665 16.5343C6.13233 16.68 6.23154 16.8656 6.27173 17.0677C6.31193 17.2698 6.2913 17.4792 6.21246 17.6695C6.13361 17.8599 6.0001 18.0226 5.8288 18.137C5.6575 18.2515 5.4561 18.3126 5.25008 18.3126C4.97381 18.3126 4.70886 18.2028 4.51351 18.0075C4.31816 17.8121 4.20841 17.5472 4.20841 17.2709ZM2.12508 12.0626H7.33341V14.9584C6.71866 14.409 5.91168 14.1248 5.0883 14.1677C4.26493 14.2106 3.49188 14.5772 2.93758 15.1876H2.12508V12.0626Z" fill="#010101"/>
</svg>